# xmcd CD database file
#
# Track frame offsets:
#	150
#	22428
#	37783
#	58760
#	75435
#	90453
#	121953
#	142258
#	166286
#	189928
#	210858
#	236440
#	255209
#
# Disc length: 3634 seconds
#
# Revision: 0
# Processed by: cddbd v1.4PL0 Copyright (c) Steve Scherf et al.
# Submitted via: Feurio! 1.61 - http://www.feurio.com
#
DISCID=9e0e300d
DTITLE=Jay Owens - The Blues Soul Of Jay Owens
DYEAR=1900
DGENRE=
TTITLE0=Come On To My House
TTITLE1=Stepping Stone
TTITLE2=Bottom Line
TTITLE3=Chasing My Dreams
TTITLE4=Lake City, Fla
TTITLE5=Wishing Well
TTITLE6=Back Row
TTITLE7=Why You Treat Me This Way
TTITLE8=Can't Do The Same Thing Again
TTITLE9=Crosstown Love
TTITLE10=Missing You Blues
TTITLE11=My Kind Of Woman
TTITLE12=We're Human
EXTD=
EXTT0=
EXTT1=
EXTT2=
EXTT3=
EXTT4=
EXTT5=
EXTT6=
EXTT7=
EXTT8=
EXTT9=
EXTT10=
EXTT11=
EXTT12=
PLAYORDER=
